<svg width="20" height="20" viewBox="0 0 20 20" fill="none" xmlns="http://www.w3.org/2000/svg">
<path d="M9.68127 4.50886L8.95948 3.76693C7.26522 2.02536 4.15858 2.62635 3.03713 4.8159C2.51063 5.84574 2.39184 7.33262 3.35323 9.23023C4.27938 11.0574 6.20618 13.2459 9.68127 15.6298C13.1564 13.2459 15.0822 11.0574 16.0093 9.23023C16.9707 7.33162 16.8529 5.84574 16.3254 4.8159C15.204 2.62635 12.0973 2.02435 10.4031 3.76592L9.68127 4.50886ZM9.68127 16.8428C-5.75428 6.64304 4.92869 -1.31785 9.50409 2.89313C9.5645 2.94883 9.62356 3.00621 9.68127 3.06527C9.73798 3.00584 9.79709 2.94874 9.85845 2.89413C14.4328 -1.31987 25.1168 6.64203 9.68127 16.8428Z" fill="#C2C2C2"/>
</svg>
