<svg width="20" height="19" viewBox="0 0 20 19" fill="none" xmlns="http://www.w3.org/2000/svg">
<path d="M15.1258 5.33996H14.018V4.64273C14.018 4.12907 13.8139 3.63645 13.4507 3.27324C13.0875 2.91003 12.5949 2.70597 12.0812 2.70597H8.20768C7.69402 2.70597 7.2014 2.91003 6.83819 3.27324C6.47498 3.63645 6.27093 4.12907 6.27093 4.64273V5.33996H5.15535C4.64169 5.33996 4.14907 5.54401 3.78586 5.90723C3.42265 6.27044 3.2186 6.76306 3.2186 7.27672V14.6132C3.2186 15.1268 3.42265 15.6194 3.78586 15.9826C4.14907 16.3459 4.64169 16.5499 5.15535 16.5499H15.1258C15.3801 16.5499 15.632 16.4998 15.8669 16.4025C16.1019 16.3052 16.3154 16.1625 16.4953 15.9826C16.6751 15.8028 16.8178 15.5893 16.9151 15.3543C17.0124 15.1193 17.0625 14.8675 17.0625 14.6132V7.27672C17.0625 7.02238 17.0124 6.77053 16.9151 6.53556C16.8178 6.30058 16.6751 6.08707 16.4953 5.90723C16.3154 5.72738 16.1019 5.58472 15.8669 5.48739C15.632 5.39006 15.3801 5.33996 15.1258 5.33996ZM7.04563 4.64273C7.04563 4.33454 7.16806 4.03896 7.38599 3.82103C7.60391 3.60311 7.89949 3.48068 8.20768 3.48068H12.0812C12.3894 3.48068 12.685 3.60311 12.9029 3.82103C13.1208 4.03896 13.2432 4.33454 13.2432 4.64273V5.33996H7.04563V4.64273ZM16.2878 14.6132C16.2878 14.9214 16.1654 15.2169 15.9475 15.4349C15.7295 15.6528 15.434 15.7752 15.1258 15.7752H5.15535C4.84716 15.7752 4.55159 15.6528 4.33366 15.4349C4.11573 15.2169 3.9933 14.9214 3.9933 14.6132V7.27672C3.9933 6.96852 4.11573 6.67295 4.33366 6.45502C4.55159 6.2371 4.84716 6.11467 5.15535 6.11467H15.1258C15.434 6.11467 15.7295 6.2371 15.9475 6.45502C16.1654 6.67295 16.2878 6.96852 16.2878 7.27672V14.6132Z" fill="#313131"/>
</svg>
