<svg width="15" height="16" viewBox="0 0 15 16" fill="none" xmlns="http://www.w3.org/2000/svg">
<path d="M10.625 6.98804C11.6605 6.98804 12.5 6.14857 12.5 5.11304C12.5 4.0775 11.6605 3.23804 10.625 3.23804C9.58947 3.23804 8.75 4.0775 8.75 5.11304C8.75 6.14857 9.58947 6.98804 10.625 6.98804Z" stroke="#313131" stroke-width="0.9375" stroke-linecap="round" stroke-linejoin="round"/>
<path d="M4.375 13.238C5.41053 13.238 6.25 12.3986 6.25 11.363C6.25 10.3275 5.41053 9.48804 4.375 9.48804C3.33947 9.48804 2.5 10.3275 2.5 11.363C2.5 12.3986 3.33947 13.238 4.375 13.238Z" stroke="#313131" stroke-width="0.9375" stroke-linecap="round" stroke-linejoin="round"/>
<path d="M8.75 9.48804H12.5V12.613C12.5 12.7788 12.4342 12.9378 12.3169 13.055C12.1997 13.1722 12.0408 13.238 11.875 13.238H9.375C9.20924 13.238 9.05027 13.1722 8.93306 13.055C8.81585 12.9378 8.75 12.7788 8.75 12.613V9.48804ZM2.5 3.23804H6.25V6.36304C6.25 6.5288 6.18415 6.68777 6.06694 6.80498C5.94973 6.92219 5.79076 6.98804 5.625 6.98804H3.125C2.95924 6.98804 2.80027 6.92219 2.68306 6.80498C2.56585 6.68777 2.5 6.5288 2.5 6.36304V3.23804Z" stroke="#313131" stroke-width="0.9375" stroke-linecap="round" stroke-linejoin="round"/>
</svg>
