<svg width="17" height="17" viewBox="0 0 17 17" fill="none" xmlns="http://www.w3.org/2000/svg">
<path d="M8.43634 4.02992L7.81798 3.39431C6.36651 1.9023 3.70505 2.41718 2.7443 4.29296C2.29325 5.17523 2.19148 6.44904 3.0151 8.07472C3.80854 9.64003 5.45923 11.5149 8.43634 13.5572C11.4134 11.5149 13.0633 9.64003 13.8576 8.07472C14.6812 6.44817 14.5803 5.17523 14.1284 4.29296C13.1676 2.41718 10.5062 1.90144 9.0547 3.39345L8.43634 4.02992ZM8.43634 14.5964C-4.7873 5.85827 4.3648 -0.961826 8.28455 2.64572C8.3363 2.69344 8.38689 2.7426 8.43634 2.79319C8.48492 2.74228 8.53556 2.69337 8.58812 2.64658C12.507 -0.96355 21.66 5.85741 8.43634 14.5964Z" fill="#313131"/>
</svg>
