<svg width="20" height="19" viewBox="0 0 20 19" fill="none" xmlns="http://www.w3.org/2000/svg">
<path d="M9.73105 1.45714C8.64264 1.45714 7.59881 1.88951 6.82918 2.65914C6.05956 3.42876 5.62719 4.47259 5.62719 5.56101C5.62719 6.64942 6.05956 7.69325 6.82918 8.46288C7.59881 9.2325 8.64264 9.66487 9.73105 9.66487C10.8195 9.66487 11.8633 9.2325 12.6329 8.46288C13.4025 7.69325 13.8349 6.64942 13.8349 5.56101C13.8349 4.47259 13.4025 3.42876 12.6329 2.65914C11.8633 1.88951 10.8195 1.45714 9.73105 1.45714ZM6.28156 5.56101C6.28156 4.64614 6.64499 3.76875 7.2919 3.12185C7.9388 2.47494 8.81619 2.11152 9.73105 2.11152C10.6459 2.11152 11.5233 2.47494 12.1702 3.12185C12.8171 3.76875 13.1805 4.64614 13.1805 5.56101C13.1805 6.47587 12.8171 7.35326 12.1702 8.00016C11.5233 8.64707 10.6459 9.01049 9.73105 9.01049C8.81619 9.01049 7.9388 8.64707 7.2919 8.00016C6.64499 7.35326 6.28156 6.47587 6.28156 5.56101ZM4.79232 10.7536C4.24325 10.7536 3.71667 10.9717 3.32842 11.3599C2.94017 11.7482 2.72205 12.2748 2.72205 12.8238V13.2114C2.72205 14.4838 4.34872 17.7992 9.73105 17.7992C15.1134 17.7992 16.7401 14.4833 16.7401 13.2114V12.8238C16.7401 12.2748 16.5219 11.7482 16.1337 11.3599C15.7454 10.9717 15.2189 10.7536 14.6698 10.7536H4.79232ZM3.37643 12.8238C3.37643 12.4483 3.5256 12.0882 3.79113 11.8227C4.05667 11.5571 4.4168 11.408 4.79232 11.408H14.6698C15.0453 11.408 15.4054 11.5571 15.671 11.8227C15.9365 12.0882 16.0857 12.4483 16.0857 12.8238V13.2114C16.0857 14.0697 14.8065 17.1449 9.73105 17.1449C4.65559 17.1449 3.37643 14.0697 3.37643 13.2114V12.8238Z" fill="#313131" stroke="#313131" stroke-width="0.0733481"/>
</svg>
