<svg width="202" height="46" viewBox="0 0 202 46" fill="none" xmlns="http://www.w3.org/2000/svg">
<path fill-rule="evenodd" clip-rule="evenodd" d="M6.79794 13.3731C5.35835 13.6853 4.1816 14.317 2.96723 15.4299C-0.145643 18.2822 -0.868044 22.3693 1.07915 26.1119C2.14451 28.1597 3.9966 29.6837 6.27552 30.3878C7.16517 30.6627 7.76006 30.7054 10.5096 30.6915C12.2692 30.6827 14.1016 30.6277 14.5817 30.5694L15.4544 30.4634L14.6393 29.4158L13.8241 28.3683L10.5095 28.3573C7.26565 28.3465 7.17494 28.3371 6.26363 27.9099C3.58736 26.6555 1.99192 23.5792 2.54528 20.7404C2.95355 18.6472 4.37555 16.8026 6.26363 15.9177C7.14807 15.503 7.34251 15.4786 10.143 15.428L13.0911 15.3745L14.2099 14.2473L15.3285 13.1199L11.5874 13.1328C9.04038 13.1417 7.51155 13.2184 6.79794 13.3731ZM19.729 13.5712C18.2445 14.0755 16.5512 15.201 15.6835 16.26C14.9575 17.1459 14.1794 18.7879 13.9407 19.9381C13.8384 20.4305 13.7868 21.5347 13.826 22.3914C13.9615 25.347 15.3044 27.6715 17.8639 29.3806C18.9949 30.1359 20.9476 30.7077 22.396 30.7077C23.656 30.7077 25.8505 30.1602 26.8131 29.6058C28.1417 28.8404 29.7904 27.0136 30.5672 25.4462C31.2277 24.1131 31.2729 23.9321 31.3433 22.3499C31.4003 21.071 31.3514 20.4387 31.1392 19.7037C30.2739 16.7062 27.692 14.1152 24.8041 13.3463C23.3682 12.9639 21.2386 13.0583 19.729 13.5712ZM55.2303 13.5712C51.6013 14.8041 49.1286 18.185 49.1286 21.9138C49.1286 24.0842 49.888 25.9963 51.4093 27.6565C53.4666 29.9017 55.4223 30.7077 58.8128 30.7077C59.9091 30.7077 61.2596 30.6603 61.8139 30.6023L62.8218 30.4969L62.7741 29.4216L62.7266 28.3463L59.8767 28.4001C57.401 28.4467 56.8941 28.4118 56.0167 28.1345C54.223 27.5678 52.9482 26.404 52.0983 24.5576C51.5012 23.2609 51.4018 21.1083 51.8764 19.7562C52.3481 18.4123 53.2207 17.1903 54.1317 16.5977C55.7276 15.5597 55.9401 15.5125 59.4696 15.4115L62.7266 15.3184L62.7748 14.2191L62.8228 13.1199L59.6806 13.1233C56.6913 13.1267 56.4746 13.1486 55.2303 13.5712ZM64.6325 14.2191L64.6807 15.3184L70.5841 15.361L76.4874 15.4039V14.2618V13.1199H70.5359H64.5845L64.6325 14.2191ZM78.2787 14.2507V15.3998H82.6631H87.0477L87.5558 15.8274C88.7597 16.8404 89.0116 18.2661 88.2103 19.5298C87.4488 20.7307 87.2509 20.7738 82.518 20.7738H78.4416V25.7479V30.722L79.6222 30.6741L80.8029 30.6262L80.8465 26.84L80.8903 23.0537L83.615 23.0518C87.8357 23.0488 88.8113 22.6735 90.3822 20.4481C90.88 19.7428 90.8996 19.6541 90.8996 18.0868C90.8996 16.6116 90.8582 16.3881 90.4607 15.7118C89.9755 14.8867 89.0102 13.9478 88.1816 13.4956C87.7039 13.2349 87.1087 13.1956 82.9606 13.1515L78.2787 13.1015V14.2507ZM90.9637 13.7306C91.2379 14.0665 91.6654 14.5808 91.9138 14.8735L92.3652 15.4057L98.5535 15.362L104.742 15.3184L104.79 14.2191L104.838 13.1199H97.6516H90.4651L90.9637 13.7306ZM33.1697 15.7662C33.1698 17.132 33.2183 20.2848 33.2773 22.7722L33.3848 27.2945L36.5747 27.2505L39.7647 27.2064L39.8133 26.1886L39.8616 25.1708H37.6555H35.4492V20.9123V16.6536L40.3811 23.5586L45.3129 30.4634L46.4066 30.5116L47.5001 30.5596V21.9213V13.2827H46.3619H45.2238L45.1813 20.026L45.1388 26.7695L41.0675 20.973C38.8284 17.7851 36.6849 14.7505 36.3045 14.2297L35.6127 13.2827H34.391H33.1693L33.1697 15.7662ZM20.7113 15.6188C18.8675 16.2298 17.4174 17.4623 16.6124 19.1022C16.1875 19.9676 16.1515 20.1874 16.1517 21.9138C16.152 24.1396 16.3981 24.7899 17.8225 26.3283C20.9478 29.704 26.3664 28.8745 28.335 24.7189C28.8157 23.7042 28.8538 23.4981 28.8538 21.9138C28.8538 20.3294 28.8157 20.1234 28.335 19.1087C27.685 17.7368 26.5829 16.6435 25.1925 15.9914C24.3217 15.5832 23.8939 15.4882 22.7497 15.4496C21.908 15.4213 21.1067 15.4877 20.7113 15.6188ZM64.7079 17.4626C64.6482 17.5222 64.5993 20.5278 64.5993 24.1414V30.7117L70.5026 30.6689L76.4059 30.6262L76.4541 29.527L76.5022 28.4278H71.6908H66.8792V26.8037V25.1794L69.2812 25.1345L71.6833 25.0893L71.7315 23.9901L71.7795 22.8909H69.3295H66.8792V21.2668V19.6425L69.2812 19.5976L71.6833 19.5525L71.7315 18.4532L71.7795 17.354H68.298C66.3832 17.354 64.7675 17.4028 64.7079 17.4626ZM94.0209 17.4626C93.9611 17.5222 93.9123 18.0352 93.9123 18.6026V19.6339H95.2965H96.6807V25.1779V30.722L97.8614 30.6741L99.042 30.6262L99.0849 25.1369L99.1279 19.6476L100.388 19.6L101.648 19.5525L101.696 18.4532L101.744 17.354H97.9366C95.8427 17.354 94.0805 17.4028 94.0209 17.4626ZM33.4408 28.5364C33.381 28.596 33.3322 29.109 33.3322 29.6763V30.7077H37.5663H41.8004V29.6666C41.8004 28.8675 41.7404 28.6025 41.5427 28.5266C41.1908 28.3915 33.5765 28.4007 33.4408 28.5364Z" fill="#313131"/>
<path fill-rule="evenodd" clip-rule="evenodd" d="M113.39 21.905V30.7085H114.45H115.509V24.6764C115.509 21.3588 115.563 18.6444 115.63 18.6444C115.696 18.6444 116.869 19.7618 118.237 21.1273C120.686 23.5727 120.728 23.6053 121.021 23.2874C121.185 23.1099 122.836 21.4156 124.691 19.5223L128.062 16.0798V14.6723C128.062 13.898 128.007 13.2645 127.939 13.2645C127.871 13.2645 126.239 14.8418 124.313 16.7696L120.811 20.2749L117.221 16.6881C115.247 14.7155 113.577 13.1015 113.511 13.1015C113.444 13.1015 113.39 17.0631 113.39 21.905ZM146.974 13.1538C146.974 13.1949 147.667 14.6855 148.514 16.4662L150.055 19.7041L151.286 19.7517C152.072 19.7822 152.517 19.737 152.517 19.627C152.517 19.5321 152.076 18.5764 151.538 17.5032C151 16.43 150.56 15.4708 150.56 15.3718C150.56 15.2456 151.307 15.2081 153.046 15.2469C155.199 15.2949 155.609 15.3474 156.103 15.6372C157.009 16.1697 157.407 16.8986 157.407 18.0246C157.407 19.0782 157.18 19.6519 156.513 20.2747L156.078 20.6823L151.689 20.7328L147.3 20.7832V25.7459V30.7085H148.359H149.419V26.8918V23.0752L152.72 23.0199C155.825 22.9679 156.069 22.9412 156.824 22.5696C160.008 21.0025 160.72 16.7641 158.183 14.4825C156.692 13.1422 156.92 13.1894 151.661 13.131C149.083 13.1025 146.974 13.1127 146.974 13.1538ZM161.483 21.8235V30.5454H162.706H163.929V27.0257V23.5059L168.888 18.4305C171.616 15.6392 173.813 13.2981 173.769 13.2283C173.726 13.1585 173.173 13.1015 172.539 13.1015H171.388L168.84 15.5705C167.439 16.9286 165.763 18.5976 165.117 19.2794L163.941 20.5192L163.935 16.8104L163.929 13.1015H162.706H161.483V21.8235ZM175.993 14.1612V15.2208H188.546H201.099V14.1612V13.1015H188.546H175.993V14.1612ZM133.605 21.8435C131.409 26.5586 129.587 30.482 129.557 30.5624C129.527 30.6428 130.013 30.7085 130.637 30.7085H131.772L135.076 23.739C136.893 19.9059 138.491 16.491 138.628 16.1506C138.872 15.5471 138.864 15.503 138.329 14.398C138.028 13.7746 137.74 13.2658 137.69 13.2676C137.641 13.2692 135.802 17.1284 133.605 21.8435ZM175.993 24.1058V30.7085H181.78H187.568V29.6488V28.5891H182.84H178.112V26.8817V25.1742L180.517 25.1292L182.921 25.084L182.97 24.0651L183.018 23.0462H180.565H178.112V21.3344V19.6226H180.476H182.84V18.5629V17.5032H179.416H175.993V24.1058ZM190.665 18.5629V19.6226H192.132H193.6V25.1655V30.7085H194.659H195.719V25.1655V19.6226H197.105H198.49V18.5629V17.5032H194.578H190.665V18.5629ZM137.946 22.7478C136.797 25.1817 135.821 27.27 135.775 27.3884C135.709 27.5617 136.324 27.6126 138.914 27.6483L142.135 27.6925L142.743 29.1597L143.352 30.6269L144.589 30.6746L145.827 30.722L145.523 30.0224C144.718 28.1683 140.256 18.5481 140.152 18.4429C140.086 18.3769 139.094 20.3142 137.946 22.7478ZM126.794 20.4829L125.78 21.5062V26.1073V30.7085H126.921H128.062V25.084C128.062 21.9906 128.005 19.4596 127.935 19.4596C127.866 19.4596 127.352 19.9201 126.794 20.4829ZM167.389 21.874L166.53 22.6441L168.694 26.5894L170.857 30.5345L172.202 30.5401C172.942 30.543 173.547 30.5182 173.547 30.4851C173.547 30.311 168.451 21.091 168.358 21.0968C168.298 21.1008 167.862 21.4505 167.389 21.874ZM139.188 24.4283C138.807 25.195 138.496 25.8581 138.496 25.9016C138.496 25.9451 139.088 25.9807 139.811 25.9807C141.327 25.9807 141.282 26.1201 140.396 24.1717L139.879 23.0343L139.188 24.4283ZM152.354 24.1075C152.354 24.1531 153.088 25.6571 153.985 27.4495L155.616 30.7085H156.933C157.657 30.7085 158.224 30.6534 158.193 30.5862C158.161 30.519 157.404 29.0151 156.51 27.2441L154.884 24.0243H153.619C152.923 24.0243 152.354 24.0617 152.354 24.1075Z" fill="#313131"/>
</svg>
